<svg id="Layer_1" data-name="Layer 1" xmlns="http://www.w3.org/2000/svg" viewBox="0 0 60 60"><defs><style>.cls-1,.cls-2{fill:#fff;}.cls-1{opacity:0.4;}</style></defs><path class="cls-1" d="M25,55l-.83-14.94a1,1,0,0,1,1-1.06h9.78a1,1,0,0,1,1,1.06L35.05,55Z"/><path class="cls-2" d="M43.24,36.76l-.42-13.07a2,2,0,0,0-.32-1l-1-1.53A20.58,20.58,0,0,1,39.45,17L35.25,5.28A2,2,0,0,0,33.36,4H26.63a2,2,0,0,0-1.88,1.33L20.54,17a19.71,19.71,0,0,1-2.05,4.14l-1,1.54a2,2,0,0,0-.32,1l-.42,13.07a40.35,40.35,0,0,0,1.43,11.93l1.63,5.89a2,2,0,0,0,1.93,1.47h1.19A.06.06,0,0,0,23,56l-.88-15.76A3.06,3.06,0,0,1,25.17,37h9.66a3.06,3.06,0,0,1,3.05,3.23L37,56a.06.06,0,0,0,.06.06h1.19a2,2,0,0,0,1.93-1.47l1.63-5.88A40.45,40.45,0,0,0,43.24,36.76ZM36,30a4,4,0,0,1-4,4H28a4,4,0,0,1-4-4V24a4,4,0,0,1,4-4h4a4,4,0,0,1,4,4Z"/><path class="cls-1" d="M40.4,16.65A19.24,19.24,0,0,0,42,20V14a3,3,0,0,0-3-3h-.63Z"/><path class="cls-1" d="M32,21H28a3,3,0,0,0-3,3v.24H35V24A3,3,0,0,0,32,21Z"/><path class="cls-1" d="M19.6,16.65l2-5.65H21a3,3,0,0,0-3,3v6A19.24,19.24,0,0,0,19.6,16.65Z"/></svg>