<svg id="Layer_1" data-name="Layer 1" xmlns="http://www.w3.org/2000/svg" viewBox="0 0 60 60"><defs><style>.cls-1,.cls-2,.cls-3{fill:#fff;}.cls-1,.cls-2{isolation:isolate;}.cls-2,.cls-3{opacity:0.4;}</style></defs><path class="cls-1" d="M37.36,27.93a1.63,1.63,0,0,1-1,2.1l-.13,0L25.89,32.36a1.9,1.9,0,0,1-2.13-1.43,1.63,1.63,0,0,1,1-2.09l.14-.05,10.36-2.28a1.86,1.86,0,0,1,2,1,1.92,1.92,0,0,1,.18.45Z"/><path class="cls-1" d="M41.15,34.68a1.63,1.63,0,0,1-1,2.09l-.13,0L29.68,39.1a1.9,1.9,0,0,1-2.13-1.42,1.64,1.64,0,0,1,1-2.1l.13,0L39,33.26a1.94,1.94,0,0,1,2.13,1.41Z"/><path class="cls-1" d="M33.58,21.2a1.64,1.64,0,0,1-1,2.1l-.14,0L22.11,25.63A1.92,1.92,0,0,1,20,24.2a1.65,1.65,0,0,1,1-2.1l.13,0,10.37-2.28a1.85,1.85,0,0,1,1.94,1,2.25,2.25,0,0,1,.19.45Z"/><path class="cls-1" d="M22.91,15.85h0Z"/><path class="cls-1" d="M16.18,17.47a1.63,1.63,0,0,1,1-2.1l.13,0L27.65,13a1.91,1.91,0,0,1,2.13,1.43,1.63,1.63,0,0,1-1,2.09l-.13,0L18.31,18.89a1.86,1.86,0,0,1-1.95-1,2.82,2.82,0,0,1-.18-.45Z"/><path class="cls-1" d="M45,41.43a1.63,1.63,0,0,1-1,2.1l-.13,0L33.48,45.86a1.91,1.91,0,0,1-2.13-1.43,1.63,1.63,0,0,1,1-2.09l.13,0L42.82,40a1.85,1.85,0,0,1,2,1,2.39,2.39,0,0,1,.18.44Z"/><polygon class="cls-2" points="47.34 55.36 43.98 57.25 41.78 53.33 45.14 51.44 47.34 55.36"/><path class="cls-1" d="M16.18,17.47a1.63,1.63,0,0,1,1-2.09l.14-.05,10.36-2.28a1.9,1.9,0,0,1,2.13,1.42,1.64,1.64,0,0,1-1,2.1l-.13,0L18.31,18.89a1.85,1.85,0,0,1-1.94-1,2.25,2.25,0,0,1-.19-.45Z"/><polygon class="cls-2" points="35.2 45.48 35.16 45.5 38.2 50.9 44.92 47.11 43.03 43.75 35.2 45.48"/><polygon class="cls-3" points="12.66 7.48 15.67 12.75 16.98 12.01 18.19 11.33 20.06 14.72 23.99 13.86 21.55 9.44 22.76 8.76 24.07 8.02 21.06 2.75 12.66 7.48"/></svg>